<?xml version="1.0" standalone="no"?><!DOCTYPE svg PUBLIC "-//W3C//DTD SVG 1.1//EN" "http://www.w3.org/Graphics/SVG/1.1/DTD/svg11.dtd"><svg t="1551850886198" class="icon" style="" viewBox="0 0 1024 1024" version="1.1" xmlns="http://www.w3.org/2000/svg" p-id="3433" xmlns:xlink="http://www.w3.org/1999/xlink" width="200" height="200"><defs><style type="text/css"></style></defs><path d="M853.12 681.12a15.488 15.488 0 0 0-21.632 3.552l-67.616 94.624-67.552-94.624a15.424 15.424 0 0 0-21.632-3.552 15.36 15.36 0 0 0-3.552 21.504l58.752 82.24h-38.176c-8.576 0-15.424 7.008-15.424 15.552s6.88 15.488 15.424 15.488h56.672v17.12h-56.672c-8.576 0-15.424 6.944-15.424 15.488s6.848 15.488 15.392 15.488h56.672v38.24a15.456 15.456 0 0 0 30.976 0V864h56.736a15.456 15.456 0 1 0 0-30.912h-56.736v-17.12h56.736a15.52 15.52 0 0 0 0-31.04h-38.176l58.752-82.24a15.296 15.296 0 0 0-3.52-21.568z m0 0" p-id="3434"></path><path d="M526.784 853.696c-13.504-13.184-28.704-22.048-46.72-22.368h-1.024c-38.816 0-66.08 39.328-92.384 77.376-9.536 13.888-19.424 28.128-28.608 38.496-8.48 9.632-12.064 13.44-15.104 13.248-1.952-0.064-6.112-4.064-13.504-13.312-8.128-10.176-16.32-23.36-25.056-37.312-23.936-38.304-48.704-78.016-87.328-78.496h-0.448c-13.024 0-26.144 6.624-46.816 23.488-12.096 9.888-27.168 23.552-44.704 40.864-9.344 9.184-18.688 18.688-27.584 27.744V64.224c0-2.464 2.048-4.512 4.576-4.512h754.88c2.56 0 4.64 2.016 4.64 4.512v515.84c21.44 10.048 41.312 23.072 58.752 38.752V64.224c0-34.944-28.384-63.36-63.36-63.36H102.048a63.424 63.424 0 0 0-63.328 63.36v925.824a32.416 32.416 0 0 0 56.32 21.888 2283.36 2283.36 0 0 1 65.248-68.384c34.144-34.016 53.024-51.872 57.92-51.744 4.096 0.128 6.08 5.248 11.36 11.872 8.128 10.176 16.288 23.36 24.992 37.376 23.872 38.112 48.544 77.632 86.944 78.496 0.416 0 0.8 0.064 1.248 0 38.784 0 66.016-39.328 92.32-77.376 9.568-13.824 19.488-28.192 28.64-38.56 8.64-9.76 13.344-13.568 15.2-13.312 3.104 0.448 6.144 3.808 13.888 13.12 8.288 10.112 16.736 23.264 25.696 37.12 23.872 36.928 48.544 75.136 85.728 77.44l3.328 0.064c12.672 0 24.448-4 35.552-10.56a240.416 240.416 0 0 1-116.32-153.792z m0 0M880.992 1023.136c21.76 0 39.328-17.632 39.328-39.264v-6.816a236.8 236.8 0 0 1-60.672 39.616 38.4 38.4 0 0 0 21.344 6.464z m0 0" p-id="3435"></path><path d="M254.432 157.088c0-16.288-13.184-29.472-29.376-29.472s-29.344 13.184-29.344 29.472v532.224h350.496a242.208 242.208 0 0 1 42.048-58.752H254.432V157.088z m0 0" p-id="3436"></path><path d="M722.176 213.12a29.376 29.376 0 0 0-25.504 14.784h-0.128L580.16 435.84l-143.552-29.28h-0.032l-153.472 110.272a29.152 29.152 0 0 0-12.8 24.192 29.376 29.376 0 0 0 46.72 23.712l132.96-95.52 160.352 32.736 0.128 0.032v-0.032l136.32-243.456a29.312 29.312 0 0 0-24.608-45.376z m0 0M760.448 574.688a223.264 223.264 0 1 0 0 446.528 223.264 223.264 0 0 0 0-446.528z m0 409.504c-102.88 0-186.24-83.36-186.24-186.24s83.36-186.24 186.24-186.24a186.24 186.24 0 0 1 0 372.48z m0 0" p-id="3437"></path></svg>