<?xml version="1.0" standalone="no"?><!DOCTYPE svg PUBLIC "-//W3C//DTD SVG 1.1//EN" "http://www.w3.org/Graphics/SVG/1.1/DTD/svg11.dtd"><svg t="1551252538748" class="icon" style="" viewBox="0 0 1024 1024" version="1.1" xmlns="http://www.w3.org/2000/svg" p-id="4085" xmlns:xlink="http://www.w3.org/1999/xlink" width="128" height="128"><defs><style type="text/css"></style></defs><path d="M512 0C229.2 0 0 229.2 0 512s229.2 512 512 512 512-229.2 512-512S794.8 0 512 0z m195.2 541.2v0.1c13.7 0 24.8 11.1 24.8 24.8S720.9 591 707.2 591H536.8v206.8c0 13.7-11.1 24.8-24.8 24.8s-24.8-11.1-24.8-24.8V591H316.8c-13.7 0-24.8-11.1-24.8-24.8s11.1-24.8 24.8-24.8h170.4v-110H316.8c-13.7 0-24.8-11.1-24.8-24.8 0-13.7 11.1-24.8 24.8-24.8h146.3L325.2 250.4c-9.9-9.5-10.3-25.2-0.9-35.1 9.5-9.9 25.2-10.3 35.1-0.9l154.2 146.7L664 210.7c9.7-9.7 25.4-9.7 35.1 0 9.7 9.7 9.7 25.4 0 35.1L563.4 381.6h143.8c13.7 0 24.8 11.1 24.8 24.8 0 13.7-11.1 24.8-24.8 24.8H536.8v110h170.4z" fill="#11AAED" p-id="4086"></path></svg>