<!-- <svg width="128" height="128" xmlns="http://www.w3.org/2000/svg"><g><path d="M78.208 16.576v8.384h38.72v5.376h-38.72v8.704h38.72v5.376h-38.72v8.576h38.72v5.376h-38.72v8.576h38.72v5.376h-38.72v8.576h38.72v5.376h-38.72v8.512h38.72v5.376h-38.72v11.136H128v-94.72H78.208zM0 114.368L72.128 128V0L0 13.632v100.736z"/><path d="M28.672 82.56h-11.2l14.784-23.488-14.08-22.592h11.52l8.192 14.976 8.448-14.976h11.136l-14.08 22.208L58.368 82.56H46.656l-8.768-15.68z"/></g></svg> -->
<svg t="1551840916732" class="icon" style="" viewBox="0 0 1024 1024" version="1.1" xmlns="http://www.w3.org/2000/svg" p-id="1590" xmlns:xlink="http://www.w3.org/1999/xlink" width="200" height="200"><defs><style type="text/css"></style></defs><path d="M145.6 0C100.8 0 64 36.8 64 81.6v860.8C64 987.2 100.8 1024 145.6 1024h732.8c44.8 0 81.6-36.8 81.6-81.6V324.8L657.6 0h-512z" fill="#45B058" p-id="1591"></path><path d="M374.4 862.4c-3.2 0-6.4-1.6-8-3.2l-59.2-80-60.8 80c-1.6 1.6-4.8 3.2-8 3.2-6.4 0-11.2-4.8-11.2-11.2 0-1.6 0-4.8 1.6-6.4l62.4-81.6-57.6-78.4c-1.6-1.6-3.2-3.2-3.2-6.4 0-4.8 4.8-11.2 11.2-11.2 4.8 0 8 1.6 9.6 4.8l56 73.6 54.4-73.6c1.6-3.2 4.8-4.8 8-4.8 6.4 0 12.8 4.8 12.8 11.2 0 3.2-1.6 4.8-1.6 6.4l-59.2 76.8 62.4 83.2c1.6 1.6 3.2 4.8 3.2 6.4 0 6.4-6.4 11.2-12.8 11.2z m160-1.6H448c-9.6 0-17.6-8-17.6-17.6V678.4c0-6.4 4.8-11.2 12.8-11.2 6.4 0 11.2 4.8 11.2 11.2v161.6h80c6.4 0 11.2 4.8 11.2 9.6 0 6.4-4.8 11.2-11.2 11.2z m112 3.2c-28.8 0-51.2-9.6-67.2-24-3.2-1.6-3.2-4.8-3.2-8 0-6.4 3.2-12.8 11.2-12.8 1.6 0 4.8 1.6 6.4 3.2 12.8 11.2 32 20.8 54.4 20.8 33.6 0 44.8-19.2 44.8-33.6 0-49.6-113.6-22.4-113.6-89.6 0-32 27.2-54.4 65.6-54.4 24 0 46.4 8 60.8 20.8 3.2 1.6 4.8 4.8 4.8 8 0 6.4-4.8 12.8-11.2 12.8-1.6 0-4.8-1.6-6.4-3.2-14.4-11.2-32-16-49.6-16-24 0-40 11.2-40 30.4 0 43.2 113.6 17.6 113.6 89.6 0 27.2-19.2 56-70.4 56z" fill="#FFFFFF" p-id="1592"></path><path d="M960 326.4v16H755.2s-102.4-20.8-99.2-108.8c0 0 3.2 92.8 96 92.8h208z" fill="#349C42" p-id="1593"></path><path d="M656 0v233.6c0 25.6 19.2 92.8 99.2 92.8H960L656 0z" fill="#FFFFFF" p-id="1594"></path></svg>