<?xml version="1.0" standalone="no"?><!DOCTYPE svg PUBLIC "-//W3C//DTD SVG 1.1//EN" "http://www.w3.org/Graphics/SVG/1.1/DTD/svg11.dtd"><svg t="1551252730405" class="icon" style="" viewBox="0 0 1024 1024" version="1.1" xmlns="http://www.w3.org/2000/svg" p-id="4810" xmlns:xlink="http://www.w3.org/1999/xlink" width="128" height="128"><defs><style type="text/css"></style></defs><path d="M983.91028 257.71455801a24.35515799 24.35515799 0 0 0 0-4.96123602 24.80618 24.80618 0 0 0 0-5.41225699l-3.15715001-4.059193-4.51021499-3.15715001L523.41738 2.887439a25.257201 25.257201 0 0 0-23.453115 0L53.453031 236.51654999l-4.510215 3.15715001-3.15714999 3.608172a24.80618 24.80618 0 0 0 0 5.412257 24.80618 24.80618 0 0 0 0 4.961236v445.15817a24.80618 24.80618 0 0 0 4.961236 23.002094l446.962256 295.870071 5.86327899 2.706128h12.6286l5.863279-2.706128 451.021449-295.870071a24.80618 24.80618 0 0 0 11.275536-20.74698699V257.71455801zM511.690823 53.40184199l394.643768 206.11680201L806.207829 315.896325l-279.182277-158.308529a25.257201 25.257201 0 0 0-24.80618 0L382.698688 225.692035a24.80618 24.80618 0 0 0 0 45.102145l248.061797 146.13094999-118.618641 66.75117401-394.643768-224.15766z m270.612869 333.755872v146.13094901l-75.771603 45.102145V430.455773z m-101.930847 0L445.39067001 247.341065l69.45730299-39.238866 241.74749701 135.306434zM89.985768 301.91466l396.44785401 222.804596v427.56833401l-396.44785401-262.49448402zM535.59496 952.28759001v-427.56833401l119.971705-67.202196v165.524872a25.257201 25.257201 0 0 0 12.62860099 21.649029 25.257201 25.257201 0 0 0 25.25720101 0l126.286006-75.320582a25.257201 25.257201 0 0 0 12.177579-21.64902899v-189.42900901l100.126761-56.377681v387.87844601z" p-id="4811" fill="#1296db"></path></svg>