<svg t="1551857424560" class="icon" style="" viewBox="0 0 1024 1024" version="1.1" xmlns="http://www.w3.org/2000/svg" p-id="6236" xmlns:xlink="http://www.w3.org/1999/xlink" width="200" height="200"><defs><style type="text/css"></style></defs><path d="M843.409 97.228H181.08c-45.535 0-82.377 37.256-82.377 82.791l-0.414 745.12 165.582-165.582h579.538c45.535 0 82.791-37.256 82.791-82.791V180.019c0-45.535-37.256-82.791-82.791-82.791zM675.663 350.209V433H553.64v59.229h122.004v82.791H553.64v62.735h-82.791V575.02h-122.06v-82.791h122.06V433H348.808v-82.791h44.355l-73.98-73.98 58.542-58.542 132.522 132.522h3.994l132.522-132.522 58.542 58.542-73.98 73.98h44.338z" p-id="6237"></path></svg>