<?xml version="1.0" standalone="no"?><!DOCTYPE svg PUBLIC "-//W3C//DTD SVG 1.1//EN" "http://www.w3.org/Graphics/SVG/1.1/DTD/svg11.dtd"><svg t="1551255501438" class="icon" style="" viewBox="0 0 1024 1024" version="1.1" xmlns="http://www.w3.org/2000/svg" p-id="10915" xmlns:xlink="http://www.w3.org/1999/xlink" width="200" height="200"><defs><style type="text/css"></style></defs><path d="M607.043915 792.746654h82.982976V761.065349h-82.982976a14.68423 14.68423 0 0 1-11.362428-4.470464 11.936758 11.936758 0 0 1-3.787476-9.313465 15.972593 15.972593 0 0 1 3.787476-10.67944 18.533796 18.533796 0 0 1 11.362428-3.104489h82.982976v-14.1099l-92.280919-91.923904q-7.233458-5.867483-7.233459-12.417953 0-4.82748 5.510467-11.020934a13.209598 13.209598 0 0 1 9.639437-4.12897q6.550471 0 12.743925 6.876442l85.373433 89.533447 88.151951-89.533447q5.494945-6.876442 12.417953-6.876442a14.404827 14.404827 0 0 1 9.980931 4.12897q5.168973 6.208977 5.168973 11.020934 0 7.916446-8.614955 15.149903l-93.305401 89.207477v14.1099h82.641483q9.996453 0 13.085419 4.827479a14.668708 14.668708 0 0 1 3.445982 8.95645q0 7.916446-4.470464 11.362427c-2.762995 1.552244-6.783307 2.405979-12.060937 2.405979H717.579227v31.681305h82.641483q9.996453 0 13.085419 4.827479a14.622141 14.622141 0 0 1 3.445982 8.95645q0 7.916446-4.470464 11.362427-4.144492 2.405979-12.060937 2.405979H717.579227v45.449711a20.179175 20.179175 0 0 1-3.104489 11.719444 15.646622 15.646622 0 0 1-10.663918 4.811957q-7.590474 0-11.020934-3.787476-2.762995-4.12897-2.762995-12.743925v-45.449711h-82.982976a14.637663 14.637663 0 0 1-11.362428-4.485986 11.890191 11.890191 0 0 1-3.787476-9.313465 15.941548 15.941548 0 0 1 3.787476-10.679441 18.533796 18.533796 0 0 1 11.362428-3.073443z" fill="#1296db" p-id="10916"></path><path d="M486.465582 999.443496h-408.240234A46.210311 46.210311 0 0 1 32.108172 953.279753V46.163744A46.210311 46.210311 0 0 1 78.271916 0h816.480468a46.210311 46.210311 0 0 1 46.163743 46.163744v452.463672a31.044885 31.044885 0 0 1-62.089769 0V62.089769H94.197941v875.263958h392.267641a31.044885 31.044885 0 0 1 0 62.089769z" fill="#1296db" p-id="10917"></path><path d="M736.175113 172.795828h-481.195714a15.522442 15.522442 0 0 0-15.522442 15.522443v31.044884a15.522442 15.522442 0 0 0 15.522442 15.522443h481.195714a15.522442 15.522442 0 0 0 15.522442-15.522443v-31.044884a15.522442 15.522442 0 0 0-15.522442-15.522443zM635.077445 343.402992H254.591338a15.522442 15.522442 0 0 0-15.522442 15.522443v31.044884a15.522442 15.522442 0 0 0 15.522442 15.522443h380.486107a15.522442 15.522442 0 0 0 15.522443-15.522443v-31.044884a15.522442 15.522442 0 0 0-15.522443-15.522443zM722.530886 341.804181a31.044885 31.044885 0 1 0 31.044884 31.044884 31.044885 31.044885 0 0 0-31.044884-31.044884zM705.006048 1024c-158.173688 0-286.870257-128.681047-286.870257-286.870257S546.832361 450.243963 705.006048 450.243963 991.891828 578.9871 991.891828 737.129743 863.195258 1024 705.006048 1024z m0-511.666267c-123.946702 0-224.780488 100.895875-224.780488 224.79601s100.895875 224.780488 224.780488 224.780488 224.79601-100.895875 224.796011-224.780488-100.833786-224.79601-224.796011-224.79601z" fill="#1296db" p-id="10918"></path></svg>