<?xml version="1.0" standalone="no"?><!DOCTYPE svg PUBLIC "-//W3C//DTD SVG 1.1//EN" "http://www.w3.org/Graphics/SVG/1.1/DTD/svg11.dtd"><svg t="1551259372313" class="icon" style="" viewBox="0 0 1024 1024" version="1.1" xmlns="http://www.w3.org/2000/svg" p-id="961" xmlns:xlink="http://www.w3.org/1999/xlink" width="200" height="200"><defs><style type="text/css"></style></defs><path d="M1002.624 981.269333 42.730667 981.269333 42.730667 559.573333l161.984-161.962667c10.304 6.997333 22.762667 11.093333 36.16 11.093333 6.464 0 12.565333-1.237333 18.453333-3.008l255.68 255.701333c-1.770667 5.866667-2.986667 11.989333-2.986667 18.410667 0 35.648 28.885333 64.533333 64.554667 64.533333 35.626667 0 64.533333-28.885333 64.533333-64.533333 0-6.037333-1.109333-11.797333-2.666667-17.322667l379.050667-367.552c8.448-8.192 8.661333-21.76 0.448-30.208s-21.738667-8.64-30.208-0.448L613.589333 627.114667c-10.474667-7.402667-23.210667-11.818667-36.992-11.818667-13.418667 0-25.877333 4.096-36.181333 11.114667L294.336 380.330667c6.997333-10.325333 11.093333-22.762667 11.093333-36.181333 0-35.648-28.928-64.533333-64.554667-64.533333s-64.533333 28.906667-64.533333 64.533333c0 6.442667 1.237333 12.544 2.986667 18.410667l-136.597333 136.618667L42.730667 21.376C42.730667 9.578667 33.173333 0 21.376 0 9.578667 0 0 9.578667 0 21.376l0 529.322667 0 0.021333 0 451.904C0 1014.442667 9.578667 1024 21.376 1024l981.248 0C1014.464 1024 1024 1014.442667 1024 1002.624 1024 990.784 1014.464 981.269333 1002.624 981.269333z" p-id="962" fill="#bfcbd9"></path></svg>